inDegrees=yes
name=ik_Xsens
DataType=double
version=3
OpenSimVersion=4.4-2022-07-23-0e9fedc
endheader
time	pelvis_tilt	pelvis_list	pelvis_rotation	pelvis_tx	pelvis_ty	pelvis_tz	hip_flexion_r	hip_adduction_r	hip_rotation_r	knee_angle_r	knee_angle_r_beta	ankle_angle_r	subtalar_angle_r	mtp_angle_r	hip_flexion_l	hip_adduction_l	hip_rotation_l	knee_angle_l	knee_angle_l_beta	ankle_angle_l	subtalar_angle_l	mtp_angle_l	lumbar_extension	lumbar_bending	lumbar_rotation	arm_flex_r	arm_add_r	arm_rot_r	elbow_flex_r	pro_sup_r	wrist_flex_r	wrist_dev_r	arm_flex_l	arm_add_l	arm_rot_l	elbow_flex_l	pro_sup_l	wrist_flex_l	wrist_dev_l
72.56666666666666	0	0	0	0	0.93	0	4.594144125593695e-49	0	0	2.426570649309934e-20	5.241540515187289e-23	0	0	0	4.594144125593695e-49	0	0	2.426570649309934e-20	5.241540515187289e-23	0	0	0	0	0	0	164.0184058014543	20.30912096505848	30.86450775131346	-3.659502955568551	12.0291529331973	0	0	349.2908931546298	-184.954543289755	204.6974672012143	-21.09627902334868	16.9443997031263	0	0
72.58333333333333	0	0	0	0	0.93	0	4.594144125593695e-49	0	0	2.426570649309934e-20	5.241540515187289e-23	0	0	0	4.594144125593695e-49	0	0	2.426570649309934e-20	5.241540515187289e-23	0	0	0	0	0	0	164.0212939208675	20.30087106165066	30.85012608163191	-3.653667170910494	12.01127409428734	0	0	349.2895118939471	-184.9672551579184	204.7059548890297	-21.09901210068568	16.94811964855897	0	0
72.59999999999999	0	0	0	0	0.93	0	4.594144125593695e-49	0	0	2.426570649309934e-20	-2.121767303234229e-36	0	0	0	4.594144125593695e-49	0	0	2.426570649309934e-20	-2.121767303234229e-36	0	0	0	0	0	0	164.0226670411489	20.29352253879168	30.83082928523399	-3.647020086599186	11.99485758195807	0	0	349.2858535613906	-184.980007990291	204.7187190778349	-21.09737979869003	16.95020899202557	0	0
72.61666666666666	0	0	0	0	0.93	0	4.594144125593695e-49	0	0	2.426570649309934e-20	5.241540515187289e-23	0	0	0	4.594144125593695e-49	0	0	2.426570649309934e-20	5.241540515187289e-23	0	0	0	0	0	0	164.022521306314	20.28118420531177	30.82791092769838	-3.634897427139626	11.9624762806546	0	0	349.2783645447689	-184.9927778058488	204.7333561084251	-21.0911746997728	16.93344882636291	0	0
72.63333333333333	0	0	0	0	0.93	0	4.594144125593695e-49	0	0	2.426570649309934e-20	5.241540515187289e-23	0	0	0	4.594144125593695e-49	0	0	2.426570649309934e-20	5.241540515187289e-23	0	0	0	0	0	0	164.0065730455715	20.26154890838212	30.84652978939232	-3.612692530060646	11.93014974575532	0	0	349.268593060602	-185.0054416808881	204.7535194097406	-21.07694539315507	16.89912648086824	0	0
72.65000000000001	0	0	0	0	0.93	0	4.594144125593695e-49	0	0	2.426570649309934e-20	5.241540515187289e-23	0	0	0	4.594144125593695e-49	0	0	2.426570649309934e-20	5.241540515187289e-23	0	0	0	0	0	0	164.0076827326918	20.2533938035036	30.84830459733147	-3.613928112017428	11.93144972297313	0	0	349.2611655094099	-185.0190139831576	204.7409035724812	-21.06933111112702	16.89949187881249	0	0
72.66666666666667	0	0	0	0	0.93	0	4.594144125593695e-49	0	0	2.426570649309934e-20	-2.121767303234229e-36	0	0	0	4.594144125593695e-49	0	0	2.426570649309934e-20	-2.121767303234229e-36	0	0	0	0	0	0	164.0029385687477	20.23627935256307	30.84896469255839	-3.612860825753143	11.92726197615513	0	0	349.2523611229695	-185.0332335336775	204.7362418274733	-21.06217188252774	16.89812116525211	0	0
72.68333333333334	0	0	0	0	0.93	0	4.594144125593695e-49	0	0	2.426570649309934e-20	-2.121767303234229e-36	0	0	0	4.594144125593695e-49	0	0	2.426570649309934e-20	-2.121767303234229e-36	0	0	0	0	0	0	163.9976117907323	20.21533192104701	30.83776697870057	-3.610288596184598	11.91660452591325	0	0	349.2432483093496	-185.0489253816066	204.737789378802	-21.05651995304289	16.88295186763706	0	0
72.7	0	0	0	0	0.93	0	4.594144125593695e-49	0	0	2.426570649309934e-20	-2.121767303234229e-36	0	0	0	4.594144125593695e-49	0	0	2.426570649309934e-20	-2.121767303234229e-36	0	0	0	0	0	0	163.9952288799225	20.19538001075809	30.81854407160227	-3.605862386468018	11.89857546192348	0	0	349.2351244140415	-185.064324354622	204.7384840090203	-21.0530248367512	16.86823601047419	0	0
72.71666666666667	0	0	0	0	0.93	0	4.594144125593695e-49	0	0	2.426570649309934e-20	-5.241540515187714e-23	0	0	0	4.594144125593695e-49	0	0	2.426570649309934e-20	-5.241540515187714e-23	0	0	0	0	0	0	163.9988675353726	20.17203639426968	30.79690224274738	-3.589839253079318	11.83457349196513	0	0	349.2253158043218	-185.0780323752055	204.7326875800163	-21.05057130044846	16.85956703236014	0	0
72.73333333333333	0	0	0	0	0.93	0	0	0	0	0	0	0	0	0	0	0	0	0	0	0	0	0	0	0	0	163.9947149750726	20.15322215747327	30.80054454162216	-3.559775407301555	11.68690862827805	0	0	349.2180247431563	-185.0929834593425	204.7174869594326	-21.04996908932824	16.84676856641107	0	0
72.75	0	0	0	0	0.93	0	4.594144125593695e-49	0	0	2.426570649309934e-20	5.241540515187501e-23	0	0	0	4.594144125593695e-49	0	0	2.426570649309934e-20	5.241540515187501e-23	0	0	0	0	0	0	163.9990265729216	20.12994224200914	30.80681546419629	-3.538159987482169	11.60586941557665	0	0	349.2141335881366	-185.10467585231	204.719676556872	-21.05461503575216	16.83297457989316	0	0
72.76666666666667	0	0	0	0	0.93	0	4.594144125593695e-49	0	0	2.426570649309934e-20	5.241540515187501e-23	0	0	0	4.594144125593695e-49	0	0	2.426570649309934e-20	5.241540515187501e-23	0	0	0	0	0	0	163.9943127663678	20.11616473569324	30.80819666129804	-3.535612867288922	11.60233742676924	0	0	349.2076256417462	-185.1184089825684	204.7185715926832	-21.05909889231268	16.81691642249863	0	0
